<svg width="263px" height="49px" viewBox="0 0 263 49" version="1.1" xmlns="http://www.w3.org/2000/svg" xmlns:xlink="http://www.w3.org/1999/xlink" data-v-ffa4bd7a=""><defs><polygon id="path-1" points="0.00330601093 0.0861791719 29.6625811 0.0861791719 29.6625811 22.1506849 0.00330601093 22.1506849"></polygon> <polygon id="path-3" points="0.579941837 0.619682192 114.619694 0.619682192 114.619694 35.9560658 0.579941837 35.9560658"></polygon></defs> <g id="index" stroke="none" stroke-width="1" fill="none" fill-rule="evenodd"><g id="01_index" transform="translate(-565.000000, -1976.000000)"><g id="partners" transform="translate(0.000000, 1915.000000)"><g id="Group-17" transform="translate(565.000000, 61.000000)"><path id="Fill-1" d="M0,15.448089 C0,16.5838151 0.297216837,17.6926918 0.876219388,18.6834315 C2.95204082,22.2396233 2.95204082,26.3193767 0.876219388,29.8755685 C0.297216837,30.8669795 0,31.9751849 0,33.110911 C0,36.7684589 3.08085714,39.7312808 6.88228061,39.7312808 C10.6837041,39.7312808 13.7638903,36.7684589 13.7638903,33.110911 C13.7638903,31.9751849 13.4660026,30.8669795 12.8876709,29.8755685 C10.8111786,26.3193767 10.8111786,22.2396233 12.8876709,18.6834315 C13.4660026,17.6926918 13.7638903,16.5838151 13.7638903,15.448089 C13.7638903,11.7918836 10.6837041,8.82839041 6.88228061,8.82839041 C3.08085714,8.82839041 0,11.7918836 0,15.448089" fill="#999999"></path> <g id="Group-5" transform="translate(0.000000, 26.408651)"><mask id="mask-2" fill="white"><use xlink:href="#path-1"></use></mask> <g id="Clip-4"></g> <path id="Fill-3" d="M3.44107321,12.4355959 C4.46355281,13.0034589 5.61082321,13.3102123 6.79231046,13.323637 C11.0318436,13.372637 14.7051217,15.4118425 16.8681625,18.9190342 C17.4706472,19.8970205 18.3207008,20.6991438 19.3431804,21.2670068 C22.625313,23.0900753 26.8494151,22.0006644 28.7440885,18.8445274 C30.638762,15.6877192 29.5069227,11.6234041 26.225461,9.80100685 C25.2029814,9.23314384 24.055711,8.92639041 22.8742237,8.91296575 C18.6346906,8.86530822 14.9614125,6.82543151 12.7977008,3.31756849 C12.1952161,2.33958219 11.3458334,1.53813014 10.3226829,0.96959589 C7.04122117,-0.85280137 2.81644821,0.235938356 0.921774745,3.39274658 C-0.972898724,6.54888356 0.158940561,10.6131986 3.44107321,12.4355959" fill="#999999" mask="url(#mask-2)"></path></g> <path id="Fill-6" d="M3.44107321,9.71508904 C0.158940561,11.5374863 -0.972898724,15.6018014 0.921774745,18.7579384 C2.81644821,21.9147466 7.04122117,23.0034863 10.3226829,21.181089 C11.3458334,20.6125548 12.1952161,19.8111027 12.7977008,18.8331164 C14.9614125,15.3252534 18.6346906,13.2860479 22.8742237,13.2377192 C24.055711,13.2242945 25.2029814,12.9175411 26.225461,12.3496781 C29.5069227,10.5272808 30.638762,6.46296575 28.7440885,3.30682877 C26.8494151,0.150020548 22.625313,-0.939390411 19.3431804,0.883678082 C18.3207008,1.4515411 17.4706472,2.25366438 16.8681625,3.23165068 C14.7051217,6.73884247 11.0318436,8.77804795 6.79231046,8.82704795 C5.61082321,8.8404726 4.46355281,9.14655479 3.44107321,9.71508904" fill="#999999"></path> <path id="Fill-8" d="M19.3432474,36.2097918 C16.0611148,38.032189 14.9292755,42.0965041 16.823949,45.2526411 C18.7186224,48.4094493 22.9433954,49.498189 26.2248571,47.6757918 C27.2480077,47.1072575 28.0973903,46.3058055 28.699875,45.3278192 C30.8635867,41.8199562 34.5368648,39.7807507 38.776398,39.7324219 C39.9578852,39.7189973 41.1051556,39.4122438 42.1269643,38.8443808 C45.4090969,37.0219836 46.5409362,32.9576685 44.6462628,29.8008603 C42.7515893,26.6447233 38.5274872,25.5553123 35.2453546,27.3783808 C34.222875,27.9462438 33.3728214,28.7483671 32.7703367,29.7263534 C30.6072959,33.2335452 26.9333469,35.2727507 22.6944847,35.3217507 C21.5129974,35.3351753 20.365727,35.6419288 19.3432474,36.2097918" fill="#999999"></path> <path id="Fill-10" d="M19.3432474,18.5466342 C16.0611148,20.3690315 14.9292755,24.4333466 16.823949,27.5894836 C18.7186224,30.7462918 22.9433954,31.8350315 26.2248571,30.0126342 C27.2480077,29.4441 28.0973903,28.6426479 28.699875,27.6646616 C30.8635867,24.1567986 34.5368648,22.1175932 38.776398,22.0692644 C39.9578852,22.0558397 41.1051556,21.7490863 42.1269643,21.1812233 C45.4090969,19.358826 46.5409362,15.294511 44.6462628,12.138374 C42.7515893,8.98156575 38.5274872,7.89215479 35.2453546,9.71522329 C34.222875,10.2830863 33.3728214,11.0852096 32.7703367,12.0631959 C30.6072959,15.5703877 26.9333469,17.6095932 22.6944847,17.6585932 C21.5129974,17.6720178 20.365727,17.9787712 19.3432474,18.5466342" fill="#33D3CE"></path> <path id="Fill-12" d="M146.67557,38.0602466 C145.548427,38.2354384 144.721855,38.3233699 144.207932,38.3233699 C142.761432,38.3233699 141.740965,38.003863 141.14586,37.3648493 C140.550756,36.7318767 140.250184,35.6290411 140.250184,34.075137 L140.250184,21.1062466 L137.545042,21.1062466 L137.545042,18.4374247 L140.250184,18.4374247 L140.250184,12.9487534 L143.557141,12.9487534 L143.557141,18.4374247 L146.67557,18.4374247 L146.67557,21.1062466 L143.557141,21.1062466 L143.557141,34.0690959 C143.557141,34.507411 143.732251,34.8584658 144.083141,35.1148767 C144.43336,35.3719589 144.903003,35.5035205 145.49207,35.5035205 L146.67557,35.5035205 L146.67557,38.0602466 Z M132.650692,14.8288767 L136.032121,14.8288767 L136.032121,11.0693014 L132.650692,11.0693014 L132.650692,14.8288767 Z M132.687593,38.0978356 L132.687593,18.4374247 L134.341406,18.4374247 L135.994549,18.4374247 L135.994549,38.0978356 L134.341406,38.0978356 L132.687593,38.0978356 Z M120.804286,20.8055342 C118.957248,20.8055342 117.610715,21.3942055 116.75261,22.5789315 C115.894506,23.7623151 115.468473,25.6484795 115.468473,28.224 C115.468473,30.6545342 115.932077,32.5219041 116.853248,33.8375205 C117.773748,35.1464247 119.094786,35.8049041 120.804286,35.8049041 C122.407781,35.8049041 123.697286,35.2028082 124.674815,33.9939178 C125.651672,32.7850274 126.1401,31.1874932 126.1401,29.1946027 C126.1401,26.5136986 125.676496,24.439589 124.755996,22.9856986 C123.835496,21.5324795 122.513786,20.8055342 120.804286,20.8055342 Z M120.616429,38.6240822 C117.986429,38.6240822 115.894506,37.6400548 114.342001,35.6726712 C112.788154,33.7059589 112.011901,31.0498904 112.011901,27.7031233 C112.011901,24.7530548 112.76333,22.3721918 114.266187,20.5551644 C115.775753,18.7441781 117.735506,17.836 120.159534,17.836 C122.570144,17.836 124.47421,18.8569452 125.883139,20.8995068 L126.1401,21.2686849 L126.1401,11.1068904 L127.792572,11.1068904 L129.446386,11.1068904 L129.446386,38.0978356 L127.924743,38.0978356 L126.377605,38.0978356 L126.377605,35.4102192 L125.958281,36.0176849 C124.599672,37.7534932 122.820396,38.6240822 120.616429,38.6240822 Z M107.216848,26.745274 C107.12359,24.9222055 106.666024,23.5052329 105.858238,22.491 C104.969271,21.3693699 103.660309,20.8055342 101.932024,20.8055342 C100.1977,20.8055342 98.806886,21.450589 97.7683043,22.747411 C96.9471003,23.7623151 96.4526334,25.096726 96.283562,26.745274 L107.216848,26.745274 Z M101.700557,38.6240822 C98.9263094,38.6240822 96.7404574,37.7400685 95.1497099,35.9800959 C93.5589625,34.213411 92.7645952,31.7761644 92.7645952,28.6623151 C92.7645952,25.3538082 93.6032431,22.7225753 95.2872482,20.7679452 C96.965886,18.8133151 99.2262099,17.836 102.063524,17.836 C104.631128,17.836 106.704266,18.7945205 108.281595,20.7055205 C109.860266,22.6158493 110.649266,25.128274 110.649266,28.2360822 L110.611695,29.4140959 L96.283562,29.4140959 C96.415062,31.3747671 96.8659191,32.8662466 97.623386,33.8939041 C98.5505952,35.1403836 100.015881,35.7673151 102.019243,35.7673151 C103.277886,35.7673151 104.380876,35.4162603 105.319491,34.7081096 C106.259447,33.9999589 106.835095,33.103863 107.042409,32.0077397 L110.311123,32.0077397 C109.822695,34.1570274 108.839128,35.7981918 107.373843,36.9265342 C105.908557,38.0602466 104.017238,38.6240822 101.700557,38.6240822 Z M83.1033707,38.0978356 L83.1033707,18.4374247 L84.6625849,18.4374247 L86.2472941,18.4374247 L86.2472941,21.7956027 C86.5290798,21.2686849 86.8229421,20.7867397 87.1429702,20.3605068 C88.3888656,18.6750411 89.9292941,17.836 91.7521793,17.836 C92.0520798,17.836 92.3653987,17.8917123 92.6847559,17.9984384 L92.6847559,21.3881644 L92.0091411,21.3693699 C90.217789,21.3693699 88.8397227,21.9083699 87.8695747,22.9796575 C86.8980849,24.0509452 86.4103273,25.5733014 86.4103273,27.5594795 L86.4103273,38.0978356 L84.7565135,38.0978356 L83.1033707,38.0978356 Z M80.125164,28.1736575 C79.6615594,31.5063288 78.3841309,34.1194384 76.2989166,36.0109726 C74.2137023,37.9038493 71.5769931,38.8496164 68.388789,38.8496164 C64.6698885,38.8496164 61.707113,37.5655479 59.5031462,34.9967397 C57.2924702,32.4272603 56.1901513,28.9690685 56.1901513,24.6214932 C56.1901513,20.2665342 57.3367508,16.8016301 59.6286079,14.2267808 C61.9271742,11.6452192 65.0073605,10.3551096 68.8711793,10.3551096 C71.915136,10.3551096 74.4203452,11.1384384 76.3740594,12.7044247 C78.3344829,14.2710822 79.5119446,16.4324521 79.8997355,19.1892055 L76.3673503,19.1892055 C76.0231691,17.403726 75.1965977,16.0189726 73.8815977,15.0476986 C72.5665977,14.0770959 70.8758834,13.5877671 68.8087839,13.5877671 C66.1036411,13.5877671 63.9553605,14.5838767 62.3525365,16.5760959 C60.7497125,18.5689863 59.9472941,21.2505616 59.9472941,24.6214932 C59.9472941,28.1984932 60.6933554,30.930411 62.1774268,32.8038219 C63.6614982,34.6765616 65.8158171,35.6162877 68.6397125,35.6162877 C70.7255977,35.6162877 72.4599217,34.9712329 73.8440263,33.6811233 C75.2214217,32.3836301 76.1419217,30.5484795 76.5934497,28.1736575 L80.125164,28.1736575 Z" fill="#999999"></path> <g id="Group-16" transform="translate(148.272959, 10.299062)"><mask id="mask-4" fill="white"><use xlink:href="#path-3"></use></mask> <g id="Clip-15"></g> <path id="Fill-14" d="M109.125812,15.7694082 C109.006388,14.5726 108.687702,13.6389151 108.173779,12.9683534 C107.503531,12.0789699 106.457569,11.6339425 105.042603,11.6339425 C103.683993,11.6339425 102.650779,12.1541479 101.942289,13.1878466 C101.504179,13.846326 101.184822,14.7102027 100.990927,15.7694082 L109.125812,15.7694082 Z M105.111707,28.3248192 C102.080498,28.3248192 99.7450311,27.3911342 98.1032939,25.5177233 C96.4568602,23.6443123 95.636327,20.9754904 95.636327,17.5179699 C95.636327,14.3222301 96.4756459,11.8218877 98.1475745,10.0176137 C99.8195031,8.21333973 102.142893,7.31053151 105.117745,7.31053151 C108.161702,7.31053151 110.503207,8.23213425 112.143603,10.0679562 C113.790707,11.9098192 114.61124,14.5282986 114.61124,17.924737 C114.636735,18.3127096 114.605202,18.7141068 114.517312,19.1148329 L100.933898,19.1148329 C101.053322,20.7002849 101.403541,21.8903808 101.973822,22.6737096 C102.706465,23.6570658 103.927536,24.1517644 105.630998,24.1517644 C106.426707,24.1517644 107.158679,23.9262301 107.835636,23.4697918 C108.511921,23.012011 108.918498,22.4609288 109.050669,21.8219151 L114.423383,21.8219151 C113.972526,23.8517233 112.926564,25.4492575 111.27946,26.5957233 C109.639064,27.7489014 107.578674,28.3248192 105.111707,28.3248192 Z M75.7248117,27.7985726 L75.7248117,7.83744932 L78.2172735,7.83744932 L80.7285209,7.83744932 L80.7285209,10.8009425 C80.9344929,10.4438466 81.1599214,10.1055452 81.4048066,9.78603836 C82.7070592,8.13816164 84.5856306,7.31053151 87.0593066,7.31053151 C89.1633066,7.31053151 90.8171204,7.93746301 92.0066587,9.18394247 C93.2029061,10.4310932 93.7973398,12.160189 93.7973398,14.3719014 L93.7973398,27.7985726 L91.1800872,27.7985726 L88.5373398,27.7985726 L88.5373398,15.336463 C88.5373398,14.102737 88.2683015,13.1878466 87.7355923,12.5985041 C87.2035541,12.0037918 86.3890592,11.7091205 85.2874112,11.7091205 C83.9026357,11.7091205 82.8385592,12.1226 82.0998781,12.9562712 C81.3544878,13.7832301 80.9854827,14.9860795 80.9854827,16.5460247 L80.9854827,27.7985726 L78.3668883,27.7985726 L75.7248117,27.7985726 Z M66.8592964,5.50692877 L72.2326816,5.50692877 L72.2326816,0.619682192 L66.8592964,0.619682192 L66.8592964,5.50692877 Z M66.9344393,27.7985726 L66.9344393,7.83744932 L69.558401,7.83744932 L72.1951102,7.83744932 L72.1951102,27.7985726 L69.5771867,27.7985726 L66.9344393,27.7985726 Z M54.1051383,11.8594767 C52.7337811,11.8594767 51.6569571,12.3796822 50.8860719,13.4261342 C50.1165286,14.4719151 49.7280668,15.9258055 49.7280668,17.7871342 C49.7280668,19.6102027 50.1165286,21.031874 50.8860719,22.0534904 C51.6569571,23.0744356 52.7277429,23.5879288 54.0870235,23.5879288 C55.4704571,23.5879288 56.5539903,23.0683945 57.3309138,22.0279836 C58.1132046,20.9882438 58.5016663,19.5471068 58.5016663,17.7119562 C58.5016663,15.8821753 58.1132046,14.4470795 57.3309138,13.4133808 C56.5539903,12.3796822 55.4764954,11.8594767 54.1051383,11.8594767 Z M54.2681714,31.9340384 C55.7522429,31.9340384 56.8230286,31.5769425 57.468452,30.8620795 C58.1199138,30.1478877 58.4453092,28.9638329 58.4453092,27.3159562 L58.4453092,24.8666274 L58.0259852,25.5056411 C56.8612709,27.1098877 55.1886714,27.9113397 53.0088577,27.9113397 C50.4103908,27.9113397 48.3124291,26.9776548 46.7163143,25.1169973 C45.1195286,23.2502986 44.3171102,20.7882164 44.3171102,17.7300795 C44.3171102,14.5974356 45.0940337,12.0789699 46.653248,10.1746822 C48.2057531,8.26301096 50.2540668,7.31053151 52.7834291,7.31053151 C55.0256383,7.31053151 56.7666714,8.12540822 58.0071995,9.75449041 C58.2379954,10.0552027 58.4513474,10.3935041 58.6459138,10.7633534 L58.6459138,7.83744932 L63.5932658,7.83744932 L63.5932658,26.7272849 C63.5932658,29.8847644 62.8163423,32.2092438 61.2564571,33.7067644 C59.6979138,35.2042849 57.2618092,35.9560658 53.9608908,35.9560658 C51.2497097,35.9560658 49.0893526,35.4298192 47.4865286,34.3712849 C45.8823628,33.3120795 45.0316383,31.8461068 44.918924,29.978737 L50.6297811,29.978737 C50.6801,30.6620521 50.9934189,31.1567507 51.575776,31.4702164 C52.1581332,31.7769699 53.0598474,31.9340384 54.2681714,31.9340384 Z M23.7662097,27.7985726 L23.7662097,7.83744932 L26.2593423,7.83744932 L28.7699189,7.83744932 L28.7699189,10.8009425 C28.9765617,10.4438466 29.2026612,10.1055452 29.4462046,9.78603836 C30.749799,8.13816164 32.6276995,7.31053151 35.1013755,7.31053151 C37.2060464,7.31053151 38.8591893,7.93746301 40.0487276,9.18394247 C41.244975,10.4310932 41.8400796,12.160189 41.8400796,14.3719014 L41.8400796,27.7985726 L39.222827,27.7985726 L36.5794087,27.7985726 L36.5794087,15.336463 C36.5794087,14.102737 36.3103704,13.1878466 35.7783321,12.5985041 C35.245623,12.0037918 34.431799,11.7091205 33.3294801,11.7091205 C31.9453755,11.7091205 30.8806281,12.1226 30.141276,12.9562712 C29.3965566,13.7832301 29.0268806,14.9860795 29.0268806,16.5460247 L29.0268806,27.7985726 L26.4096281,27.7985726 L23.7662097,27.7985726 Z M0.579941837,27.7985726 L0.579941837,0.807627397 L20.418327,0.807627397 L20.418327,3.18244932 L20.418327,5.58143562 L6.21565612,5.58143562 L6.21565612,11.2956411 L19.4038985,11.2956411 L19.4038985,13.6140795 L19.4038985,15.9566822 L6.21565612,15.9566822 L6.21565612,23.0247644 L21.0570413,23.0247644 L21.0570413,25.3989151 L21.0570413,27.7985726 L0.579941837,27.7985726 Z" fill="#33D3CE" mask="url(#mask-4)"></path></g></g></g></g></g></svg>
